G75*
%MOIN*%
%OFA0B0*%
%FSLAX25Y25*%
%IPPOS*%
%LPD*%
%AMOC8*
5,1,8,0,0,1.08239X$1,22.5*
%
%ADD10R,0.07874X0.05906*%
%ADD11R,0.04252X0.04134*%
%ADD12OC8,0.07600*%
%ADD13R,0.04331X0.03937*%
%ADD14R,0.05512X0.02756*%
%ADD15R,0.08661X0.02362*%
%ADD16R,0.03937X0.05512*%
%ADD17C,0.01600*%
%ADD18C,0.03200*%
%ADD19C,0.03400*%
%ADD20R,0.03400X0.03400*%
%ADD21C,0.04000*%
%ADD22C,0.16598*%
D10*
X0056330Y0060594D03*
X0056330Y0072406D03*
X0081330Y0072406D03*
X0081330Y0060594D03*
D11*
X0092580Y0052445D03*
X0092580Y0045555D03*
X0037580Y0047445D03*
X0037580Y0040555D03*
D12*
X0110080Y0039000D03*
X0110080Y0049000D03*
X0110080Y0059000D03*
X0110080Y0029000D03*
D13*
X0085080Y0045654D03*
X0085080Y0052346D03*
X0080080Y0026096D03*
X0080080Y0019404D03*
X0070080Y0019404D03*
X0070080Y0026096D03*
X0060080Y0026096D03*
X0060080Y0019404D03*
X0050080Y0019404D03*
X0050080Y0026096D03*
D14*
X0027580Y0036500D03*
X0027580Y0041500D03*
X0027580Y0046500D03*
X0027580Y0051500D03*
D15*
X0054843Y0051500D03*
X0054843Y0046500D03*
X0054843Y0041500D03*
X0054843Y0036500D03*
X0075316Y0036500D03*
X0075316Y0041500D03*
X0075316Y0046500D03*
X0075316Y0051500D03*
D16*
X0068830Y0062169D03*
X0072570Y0070831D03*
X0065089Y0070831D03*
D17*
X0056330Y0060594D02*
X0049174Y0060594D01*
X0047580Y0059000D01*
X0047580Y0054000D01*
X0047580Y0046500D01*
X0054843Y0046500D01*
X0062580Y0046500D01*
X0065080Y0044000D01*
X0065080Y0019000D01*
X0060483Y0019000D01*
X0060080Y0019404D01*
X0050080Y0019404D01*
X0050080Y0026096D02*
X0054843Y0030860D01*
X0054843Y0036500D01*
X0047580Y0036500D01*
X0041330Y0030250D01*
X0033830Y0030250D01*
X0027580Y0036500D01*
X0027580Y0041500D02*
X0037580Y0041500D01*
X0037580Y0040555D01*
X0037580Y0035250D01*
X0042580Y0041500D02*
X0054843Y0041500D01*
X0062580Y0041500D01*
X0062580Y0028596D01*
X0060080Y0026096D01*
X0067580Y0028596D02*
X0067580Y0041500D01*
X0075316Y0041500D01*
X0097580Y0041500D01*
X0105080Y0049000D01*
X0110080Y0049000D01*
X0110080Y0039000D02*
X0102580Y0039000D01*
X0100080Y0036500D01*
X0080080Y0036500D01*
X0080080Y0026096D01*
X0080080Y0019404D02*
X0080483Y0019000D01*
X0087580Y0019000D01*
X0080080Y0019404D02*
X0070080Y0019404D01*
X0070080Y0026096D02*
X0067580Y0028596D01*
X0075316Y0036500D02*
X0080080Y0036500D01*
X0085080Y0045654D02*
X0092481Y0045654D01*
X0092580Y0045555D01*
X0085080Y0045654D02*
X0084233Y0046500D01*
X0075316Y0046500D01*
X0075316Y0051500D01*
X0092580Y0052445D02*
X0092580Y0057750D01*
X0042580Y0056500D02*
X0042580Y0041500D01*
X0037580Y0046500D02*
X0037580Y0047445D01*
X0037580Y0054000D01*
X0042580Y0056500D02*
X0040080Y0059000D01*
X0036330Y0059000D01*
X0028830Y0051500D01*
X0027580Y0051500D01*
X0027580Y0046500D02*
X0037580Y0046500D01*
D18*
X0054843Y0051500D02*
X0062580Y0051500D01*
X0057924Y0060594D02*
X0056330Y0060594D01*
X0057924Y0060594D02*
X0065080Y0067750D01*
X0065080Y0070821D01*
X0065089Y0070831D01*
X0072570Y0070831D02*
X0072580Y0077750D01*
X0058830Y0077750D01*
X0056330Y0077750D01*
X0053830Y0077750D01*
X0056330Y0077750D02*
X0056330Y0072406D01*
X0068830Y0062169D02*
X0070404Y0060594D01*
X0081330Y0060594D01*
X0082235Y0061500D01*
X0082580Y0061500D01*
X0085080Y0059000D01*
X0088830Y0062750D01*
X0095080Y0062750D01*
X0098830Y0059000D01*
X0110080Y0059000D01*
X0085080Y0059000D02*
X0085080Y0052346D01*
X0081330Y0072406D02*
X0081330Y0077750D01*
X0078830Y0077750D01*
X0083830Y0077750D02*
X0072580Y0077750D01*
D19*
X0047580Y0054000D03*
X0037580Y0054000D03*
X0087580Y0019000D03*
D20*
X0088830Y0029000D03*
X0062580Y0051500D03*
X0037580Y0035250D03*
X0092580Y0057750D03*
X0083830Y0077750D03*
X0078830Y0077750D03*
X0072580Y0077750D03*
X0058830Y0077750D03*
X0053830Y0077750D03*
D21*
X0088830Y0029000D02*
X0110080Y0029000D01*
D22*
X0030080Y0014000D03*
X0105080Y0014000D03*
X0105080Y0074000D03*
X0030080Y0074000D03*
M02*
