G75*
%MOIN*%
%OFA0B0*%
%FSLAX25Y25*%
%IPPOS*%
%LPD*%
%AMOC8*
5,1,8,0,0,1.08239X$1,22.5*
%
%ADD10OC8,0.07600*%
%ADD11C,0.03400*%
%ADD12C,0.01600*%
%ADD13C,0.01000*%
%ADD14R,0.03400X0.03400*%
%ADD15C,0.16598*%
D10*
X0110080Y0029000D03*
X0110080Y0039000D03*
X0110080Y0049000D03*
X0110080Y0059000D03*
D11*
X0087580Y0019000D03*
X0047580Y0054000D03*
X0037580Y0054000D03*
D12*
X0047580Y0054000D01*
X0087580Y0019000D02*
X0093830Y0019000D01*
X0097580Y0022750D01*
X0097580Y0059000D01*
X0110080Y0059000D01*
D13*
X0019580Y0084461D02*
X0019580Y0003500D01*
X0115530Y0003500D01*
X0115530Y0084461D01*
X0019580Y0084461D01*
X0019580Y0084376D02*
X0115530Y0084376D01*
X0115530Y0083378D02*
X0019580Y0083378D01*
X0019580Y0082379D02*
X0115530Y0082379D01*
X0115530Y0081381D02*
X0019580Y0081381D01*
X0019580Y0080382D02*
X0115530Y0080382D01*
X0115530Y0079384D02*
X0019580Y0079384D01*
X0019580Y0078385D02*
X0115530Y0078385D01*
X0115530Y0077387D02*
X0019580Y0077387D01*
X0019580Y0076388D02*
X0115530Y0076388D01*
X0115530Y0075390D02*
X0019580Y0075390D01*
X0019580Y0074391D02*
X0115530Y0074391D01*
X0115530Y0073393D02*
X0019580Y0073393D01*
X0019580Y0072394D02*
X0115530Y0072394D01*
X0115530Y0071396D02*
X0019580Y0071396D01*
X0019580Y0070397D02*
X0115530Y0070397D01*
X0115530Y0069399D02*
X0019580Y0069399D01*
X0019580Y0068400D02*
X0115530Y0068400D01*
X0115530Y0067402D02*
X0019580Y0067402D01*
X0019580Y0066403D02*
X0115530Y0066403D01*
X0115530Y0065405D02*
X0019580Y0065405D01*
X0019580Y0064406D02*
X0115530Y0064406D01*
X0115530Y0063408D02*
X0112602Y0063408D01*
X0112109Y0063900D02*
X0108050Y0063900D01*
X0105180Y0061030D01*
X0105180Y0060900D01*
X0096793Y0060900D01*
X0095680Y0059787D01*
X0095680Y0023537D01*
X0093043Y0020900D01*
X0089639Y0020900D01*
X0089166Y0021374D01*
X0088137Y0021800D01*
X0087023Y0021800D01*
X0085994Y0021374D01*
X0085206Y0020586D01*
X0084780Y0019557D01*
X0084780Y0018443D01*
X0085206Y0017414D01*
X0085994Y0016626D01*
X0087023Y0016200D01*
X0088137Y0016200D01*
X0089166Y0016626D01*
X0089639Y0017100D01*
X0094617Y0017100D01*
X0098367Y0020850D01*
X0099480Y0021963D01*
X0099480Y0057100D01*
X0105180Y0057100D01*
X0105180Y0056970D01*
X0108050Y0054100D01*
X0112109Y0054100D01*
X0114980Y0056970D01*
X0114980Y0061030D01*
X0112109Y0063900D01*
X0113600Y0062409D02*
X0115530Y0062409D01*
X0115530Y0061411D02*
X0114599Y0061411D01*
X0114980Y0060412D02*
X0115530Y0060412D01*
X0115530Y0059414D02*
X0114980Y0059414D01*
X0114980Y0058415D02*
X0115530Y0058415D01*
X0115530Y0057417D02*
X0114980Y0057417D01*
X0115530Y0056418D02*
X0114427Y0056418D01*
X0113429Y0055420D02*
X0115530Y0055420D01*
X0115530Y0054421D02*
X0112430Y0054421D01*
X0112109Y0053900D02*
X0108050Y0053900D01*
X0105180Y0051030D01*
X0105180Y0046970D01*
X0108050Y0044100D01*
X0112109Y0044100D01*
X0114980Y0046970D01*
X0114980Y0051030D01*
X0112109Y0053900D01*
X0112587Y0053423D02*
X0115530Y0053423D01*
X0115530Y0052424D02*
X0113585Y0052424D01*
X0114584Y0051426D02*
X0115530Y0051426D01*
X0115530Y0050427D02*
X0114980Y0050427D01*
X0114980Y0049429D02*
X0115530Y0049429D01*
X0115530Y0048430D02*
X0114980Y0048430D01*
X0114980Y0047432D02*
X0115530Y0047432D01*
X0115530Y0046433D02*
X0114442Y0046433D01*
X0113444Y0045434D02*
X0115530Y0045434D01*
X0115530Y0044436D02*
X0112445Y0044436D01*
X0112109Y0043900D02*
X0108050Y0043900D01*
X0105180Y0041030D01*
X0105180Y0036970D01*
X0107867Y0034283D01*
X0104780Y0031195D01*
X0104780Y0029500D01*
X0109580Y0029500D01*
X0109580Y0028500D01*
X0110580Y0028500D01*
X0110580Y0029500D01*
X0115380Y0029500D01*
X0115380Y0031195D01*
X0112292Y0034283D01*
X0114980Y0036970D01*
X0114980Y0041030D01*
X0112109Y0043900D01*
X0112572Y0043437D02*
X0115530Y0043437D01*
X0115530Y0042439D02*
X0113570Y0042439D01*
X0114569Y0041440D02*
X0115530Y0041440D01*
X0115530Y0040442D02*
X0114980Y0040442D01*
X0114980Y0039443D02*
X0115530Y0039443D01*
X0115530Y0038445D02*
X0114980Y0038445D01*
X0114980Y0037446D02*
X0115530Y0037446D01*
X0115530Y0036448D02*
X0114457Y0036448D01*
X0113459Y0035449D02*
X0115530Y0035449D01*
X0115530Y0034451D02*
X0112460Y0034451D01*
X0113123Y0033452D02*
X0115530Y0033452D01*
X0115530Y0032454D02*
X0114121Y0032454D01*
X0115120Y0031455D02*
X0115530Y0031455D01*
X0115530Y0030457D02*
X0115380Y0030457D01*
X0115530Y0029458D02*
X0110580Y0029458D01*
X0110580Y0028500D02*
X0115380Y0028500D01*
X0115380Y0026805D01*
X0112275Y0023700D01*
X0110580Y0023700D01*
X0110580Y0028500D01*
X0110580Y0028460D02*
X0109580Y0028460D01*
X0109580Y0028500D02*
X0109580Y0023700D01*
X0107884Y0023700D01*
X0104780Y0026805D01*
X0104780Y0028500D01*
X0109580Y0028500D01*
X0109580Y0029458D02*
X0099480Y0029458D01*
X0099480Y0028460D02*
X0104780Y0028460D01*
X0104780Y0027461D02*
X0099480Y0027461D01*
X0099480Y0026463D02*
X0105121Y0026463D01*
X0106120Y0025464D02*
X0099480Y0025464D01*
X0099480Y0024466D02*
X0107119Y0024466D01*
X0109580Y0024466D02*
X0110580Y0024466D01*
X0110580Y0025464D02*
X0109580Y0025464D01*
X0109580Y0026463D02*
X0110580Y0026463D01*
X0110580Y0027461D02*
X0109580Y0027461D01*
X0114039Y0025464D02*
X0115530Y0025464D01*
X0115530Y0024466D02*
X0113041Y0024466D01*
X0115530Y0023467D02*
X0099480Y0023467D01*
X0099480Y0022469D02*
X0115530Y0022469D01*
X0115530Y0021470D02*
X0098987Y0021470D01*
X0097988Y0020472D02*
X0115530Y0020472D01*
X0115530Y0019473D02*
X0096990Y0019473D01*
X0095991Y0018475D02*
X0115530Y0018475D01*
X0115530Y0017476D02*
X0094993Y0017476D01*
X0093613Y0021470D02*
X0088933Y0021470D01*
X0086227Y0021470D02*
X0019580Y0021470D01*
X0019580Y0020472D02*
X0085159Y0020472D01*
X0084780Y0019473D02*
X0019580Y0019473D01*
X0019580Y0018475D02*
X0084780Y0018475D01*
X0085180Y0017476D02*
X0019580Y0017476D01*
X0019580Y0016478D02*
X0086352Y0016478D01*
X0088807Y0016478D02*
X0115530Y0016478D01*
X0115530Y0015479D02*
X0019580Y0015479D01*
X0019580Y0014481D02*
X0115530Y0014481D01*
X0115530Y0013482D02*
X0019580Y0013482D01*
X0019580Y0012484D02*
X0115530Y0012484D01*
X0115530Y0011485D02*
X0019580Y0011485D01*
X0019580Y0010487D02*
X0115530Y0010487D01*
X0115530Y0009488D02*
X0019580Y0009488D01*
X0019580Y0008490D02*
X0115530Y0008490D01*
X0115530Y0007491D02*
X0019580Y0007491D01*
X0019580Y0006493D02*
X0115530Y0006493D01*
X0115530Y0005494D02*
X0019580Y0005494D01*
X0019580Y0004496D02*
X0115530Y0004496D01*
X0094611Y0022469D02*
X0019580Y0022469D01*
X0019580Y0023467D02*
X0095610Y0023467D01*
X0095680Y0024466D02*
X0019580Y0024466D01*
X0019580Y0025464D02*
X0095680Y0025464D01*
X0095680Y0026463D02*
X0019580Y0026463D01*
X0019580Y0027461D02*
X0095680Y0027461D01*
X0095680Y0028460D02*
X0019580Y0028460D01*
X0019580Y0029458D02*
X0095680Y0029458D01*
X0095680Y0030457D02*
X0019580Y0030457D01*
X0019580Y0031455D02*
X0095680Y0031455D01*
X0095680Y0032454D02*
X0019580Y0032454D01*
X0019580Y0033452D02*
X0095680Y0033452D01*
X0095680Y0034451D02*
X0019580Y0034451D01*
X0019580Y0035449D02*
X0095680Y0035449D01*
X0095680Y0036448D02*
X0019580Y0036448D01*
X0019580Y0037446D02*
X0095680Y0037446D01*
X0095680Y0038445D02*
X0019580Y0038445D01*
X0019580Y0039443D02*
X0095680Y0039443D01*
X0095680Y0040442D02*
X0019580Y0040442D01*
X0019580Y0041440D02*
X0095680Y0041440D01*
X0095680Y0042439D02*
X0019580Y0042439D01*
X0019580Y0043437D02*
X0095680Y0043437D01*
X0095680Y0044436D02*
X0019580Y0044436D01*
X0019580Y0045434D02*
X0095680Y0045434D01*
X0095680Y0046433D02*
X0019580Y0046433D01*
X0019580Y0047432D02*
X0095680Y0047432D01*
X0095680Y0048430D02*
X0019580Y0048430D01*
X0019580Y0049429D02*
X0095680Y0049429D01*
X0095680Y0050427D02*
X0019580Y0050427D01*
X0019580Y0051426D02*
X0036478Y0051426D01*
X0035994Y0051626D02*
X0037023Y0051200D01*
X0038137Y0051200D01*
X0039166Y0051626D01*
X0039639Y0052100D01*
X0045520Y0052100D01*
X0045994Y0051626D01*
X0047023Y0051200D01*
X0048137Y0051200D01*
X0049166Y0051626D01*
X0049953Y0052414D01*
X0050380Y0053443D01*
X0050380Y0054557D01*
X0049953Y0055586D01*
X0049166Y0056374D01*
X0048137Y0056800D01*
X0047023Y0056800D01*
X0045994Y0056374D01*
X0045520Y0055900D01*
X0039639Y0055900D01*
X0039166Y0056374D01*
X0038137Y0056800D01*
X0037023Y0056800D01*
X0035994Y0056374D01*
X0035206Y0055586D01*
X0034780Y0054557D01*
X0034780Y0053443D01*
X0035206Y0052414D01*
X0035994Y0051626D01*
X0035202Y0052424D02*
X0019580Y0052424D01*
X0019580Y0053423D02*
X0034788Y0053423D01*
X0034780Y0054421D02*
X0019580Y0054421D01*
X0019580Y0055420D02*
X0035137Y0055420D01*
X0036101Y0056418D02*
X0019580Y0056418D01*
X0019580Y0057417D02*
X0095680Y0057417D01*
X0095680Y0058415D02*
X0019580Y0058415D01*
X0019580Y0059414D02*
X0095680Y0059414D01*
X0096305Y0060412D02*
X0019580Y0060412D01*
X0019580Y0061411D02*
X0105561Y0061411D01*
X0106559Y0062409D02*
X0019580Y0062409D01*
X0019580Y0063408D02*
X0107558Y0063408D01*
X0105732Y0056418D02*
X0099480Y0056418D01*
X0099480Y0055420D02*
X0106730Y0055420D01*
X0107729Y0054421D02*
X0099480Y0054421D01*
X0099480Y0053423D02*
X0107573Y0053423D01*
X0106574Y0052424D02*
X0099480Y0052424D01*
X0099480Y0051426D02*
X0105576Y0051426D01*
X0105180Y0050427D02*
X0099480Y0050427D01*
X0099480Y0049429D02*
X0105180Y0049429D01*
X0105180Y0048430D02*
X0099480Y0048430D01*
X0099480Y0047432D02*
X0105180Y0047432D01*
X0105717Y0046433D02*
X0099480Y0046433D01*
X0099480Y0045434D02*
X0106715Y0045434D01*
X0107714Y0044436D02*
X0099480Y0044436D01*
X0099480Y0043437D02*
X0107587Y0043437D01*
X0106589Y0042439D02*
X0099480Y0042439D01*
X0099480Y0041440D02*
X0105590Y0041440D01*
X0105180Y0040442D02*
X0099480Y0040442D01*
X0099480Y0039443D02*
X0105180Y0039443D01*
X0105180Y0038445D02*
X0099480Y0038445D01*
X0099480Y0037446D02*
X0105180Y0037446D01*
X0105702Y0036448D02*
X0099480Y0036448D01*
X0099480Y0035449D02*
X0106701Y0035449D01*
X0107699Y0034451D02*
X0099480Y0034451D01*
X0099480Y0033452D02*
X0107037Y0033452D01*
X0106038Y0032454D02*
X0099480Y0032454D01*
X0099480Y0031455D02*
X0105040Y0031455D01*
X0104780Y0030457D02*
X0099480Y0030457D01*
X0115380Y0028460D02*
X0115530Y0028460D01*
X0115530Y0027461D02*
X0115380Y0027461D01*
X0115530Y0026463D02*
X0115038Y0026463D01*
X0095680Y0051426D02*
X0048681Y0051426D01*
X0049958Y0052424D02*
X0095680Y0052424D01*
X0095680Y0053423D02*
X0050371Y0053423D01*
X0050380Y0054421D02*
X0095680Y0054421D01*
X0095680Y0055420D02*
X0050022Y0055420D01*
X0049058Y0056418D02*
X0095680Y0056418D01*
X0046478Y0051426D02*
X0038681Y0051426D01*
X0039058Y0056418D02*
X0046101Y0056418D01*
D14*
X0062580Y0051500D03*
X0037580Y0035250D03*
X0088830Y0029000D03*
X0092580Y0057750D03*
X0083830Y0077750D03*
X0078830Y0077750D03*
X0072580Y0077750D03*
X0058830Y0077750D03*
X0053830Y0077750D03*
D15*
X0030080Y0074000D03*
X0105080Y0074000D03*
X0105080Y0014000D03*
X0030080Y0014000D03*
M02*
