G75*
%MOIN*%
%OFA0B0*%
%FSLAX25Y25*%
%IPPOS*%
%LPD*%
%AMOC8*
5,1,8,0,0,1.08239X$1,22.5*
%
%ADD10C,0.00000*%
%ADD11C,0.00700*%
%ADD12C,0.00500*%
%ADD13C,0.00600*%
%ADD14C,0.01000*%
D10*
X0017580Y0001500D02*
X0017580Y0086461D01*
X0117530Y0086461D01*
X0117530Y0001500D01*
X0017580Y0001500D01*
D11*
X0047930Y0008144D02*
X0052233Y0008144D01*
X0050081Y0010296D01*
X0050081Y0007427D01*
X0050081Y0012031D02*
X0049364Y0012748D01*
X0049364Y0014900D01*
X0047930Y0014900D02*
X0052233Y0014900D01*
X0052233Y0012748D01*
X0051516Y0012031D01*
X0050081Y0012031D01*
X0049364Y0013465D02*
X0047930Y0012031D01*
X0057930Y0012031D02*
X0059364Y0013465D01*
X0059364Y0012748D02*
X0059364Y0014900D01*
X0057930Y0014900D02*
X0062233Y0014900D01*
X0062233Y0012748D01*
X0061516Y0012031D01*
X0060081Y0012031D01*
X0059364Y0012748D01*
X0058647Y0010296D02*
X0057930Y0009579D01*
X0057930Y0008144D01*
X0058647Y0007427D01*
X0059364Y0007427D01*
X0060081Y0008144D01*
X0060081Y0008862D01*
X0060081Y0008144D02*
X0060799Y0007427D01*
X0061516Y0007427D01*
X0062233Y0008144D01*
X0062233Y0009579D01*
X0061516Y0010296D01*
X0067930Y0010296D02*
X0067930Y0007427D01*
X0067930Y0008862D02*
X0072233Y0008862D01*
X0070799Y0010296D01*
X0071516Y0012031D02*
X0070081Y0012031D01*
X0069364Y0012748D01*
X0069364Y0014900D01*
X0067930Y0014900D02*
X0072233Y0014900D01*
X0072233Y0012748D01*
X0071516Y0012031D01*
X0069364Y0013465D02*
X0067930Y0012031D01*
X0077930Y0012031D02*
X0079364Y0013465D01*
X0079364Y0012748D02*
X0079364Y0014900D01*
X0077930Y0014900D02*
X0082233Y0014900D01*
X0082233Y0012748D01*
X0081516Y0012031D01*
X0080081Y0012031D01*
X0079364Y0012748D01*
X0077930Y0010296D02*
X0080799Y0007427D01*
X0081516Y0007427D01*
X0082233Y0008144D01*
X0082233Y0009579D01*
X0081516Y0010296D01*
X0077930Y0010296D02*
X0077930Y0007427D01*
X0092397Y0026850D02*
X0093831Y0026850D01*
X0094549Y0027567D01*
X0094549Y0029002D01*
X0093114Y0029002D01*
X0091680Y0030436D02*
X0091680Y0027567D01*
X0092397Y0026850D01*
X0096284Y0026850D02*
X0096284Y0031154D01*
X0099153Y0026850D01*
X0099153Y0031154D01*
X0100887Y0031154D02*
X0103039Y0031154D01*
X0103757Y0030436D01*
X0103757Y0027567D01*
X0103039Y0026850D01*
X0100887Y0026850D01*
X0100887Y0031154D01*
X0094549Y0030436D02*
X0093831Y0031154D01*
X0092397Y0031154D01*
X0091680Y0030436D01*
X0087233Y0033677D02*
X0087233Y0036546D01*
X0085081Y0036546D01*
X0085799Y0035112D01*
X0085799Y0034394D01*
X0085081Y0033677D01*
X0083647Y0033677D01*
X0082930Y0034394D01*
X0082930Y0035829D01*
X0083647Y0036546D01*
X0082930Y0038281D02*
X0084364Y0039715D01*
X0084364Y0038998D02*
X0084364Y0041150D01*
X0082930Y0041150D02*
X0087233Y0041150D01*
X0087233Y0038998D01*
X0086516Y0038281D01*
X0085081Y0038281D01*
X0084364Y0038998D01*
X0096680Y0036850D02*
X0098831Y0036850D01*
X0099549Y0037567D01*
X0099549Y0040436D01*
X0098831Y0041154D01*
X0096680Y0041154D01*
X0096680Y0036850D01*
X0101284Y0036850D02*
X0101284Y0039719D01*
X0102718Y0041154D01*
X0104153Y0039719D01*
X0104153Y0036850D01*
X0104153Y0039002D02*
X0101284Y0039002D01*
X0101284Y0046850D02*
X0104153Y0046850D01*
X0101284Y0046850D02*
X0101284Y0051154D01*
X0099549Y0050436D02*
X0098831Y0051154D01*
X0097397Y0051154D01*
X0096680Y0050436D01*
X0096680Y0047567D01*
X0097397Y0046850D01*
X0098831Y0046850D01*
X0099549Y0047567D01*
X0100751Y0056850D02*
X0100034Y0057567D01*
X0100751Y0056850D02*
X0102185Y0056850D01*
X0102903Y0057567D01*
X0102903Y0059002D01*
X0102185Y0059719D01*
X0101468Y0059719D01*
X0100034Y0059002D01*
X0100034Y0061154D01*
X0102903Y0061154D01*
X0098299Y0059002D02*
X0095430Y0059002D01*
X0096864Y0060436D02*
X0096864Y0057567D01*
X0069733Y0051683D02*
X0069733Y0050248D01*
X0069016Y0049531D01*
X0066147Y0049531D01*
X0065430Y0050248D01*
X0065430Y0051683D01*
X0066147Y0052400D01*
X0067581Y0051683D02*
X0067581Y0049531D01*
X0067581Y0051683D02*
X0068299Y0052400D01*
X0069016Y0052400D01*
X0069733Y0051683D01*
X0069016Y0047796D02*
X0069733Y0047079D01*
X0069733Y0045644D01*
X0069016Y0044927D01*
X0068299Y0044927D01*
X0067581Y0045644D01*
X0066864Y0044927D01*
X0066147Y0044927D01*
X0065430Y0045644D01*
X0065430Y0047079D01*
X0066147Y0047796D01*
X0067581Y0046362D02*
X0067581Y0045644D01*
X0066147Y0043192D02*
X0069016Y0040323D01*
X0066147Y0040323D01*
X0065430Y0041040D01*
X0065430Y0042475D01*
X0066147Y0043192D01*
X0069016Y0043192D01*
X0069733Y0042475D01*
X0069733Y0041040D01*
X0069016Y0040323D01*
X0067581Y0038588D02*
X0066147Y0038588D01*
X0065430Y0037871D01*
X0065430Y0036436D01*
X0066147Y0035719D01*
X0066864Y0035719D01*
X0067581Y0036436D01*
X0067581Y0038588D01*
X0069016Y0037154D01*
X0069733Y0035719D01*
X0034733Y0035261D02*
X0034016Y0035261D01*
X0031147Y0038130D01*
X0030430Y0038130D01*
X0034016Y0039865D02*
X0031147Y0042734D01*
X0030430Y0042734D01*
X0030430Y0044469D02*
X0030430Y0047338D01*
X0034733Y0047338D01*
X0034733Y0049073D02*
X0030430Y0049073D01*
X0033299Y0050508D02*
X0034733Y0049073D01*
X0033299Y0050508D02*
X0034733Y0051942D01*
X0030430Y0051942D01*
X0030430Y0053677D02*
X0030430Y0056546D01*
X0034733Y0056546D01*
X0034733Y0053677D01*
X0032581Y0055112D02*
X0032581Y0056546D01*
X0031864Y0058281D02*
X0034733Y0058281D01*
X0031864Y0058281D02*
X0030430Y0059715D01*
X0031864Y0061150D01*
X0034733Y0061150D01*
X0034733Y0042734D02*
X0034733Y0039865D01*
X0034016Y0039865D01*
X0034733Y0038130D02*
X0034733Y0035261D01*
X0034016Y0033526D02*
X0034733Y0032809D01*
X0034733Y0031375D01*
X0034016Y0030657D01*
X0031147Y0033526D01*
X0030430Y0032809D01*
X0030430Y0031375D01*
X0031147Y0030657D01*
X0034016Y0030657D01*
X0034016Y0028923D02*
X0031147Y0028923D01*
X0034016Y0026053D01*
X0031147Y0026053D01*
X0030430Y0026771D01*
X0030430Y0028205D01*
X0031147Y0028923D01*
X0034016Y0028923D02*
X0034733Y0028205D01*
X0034733Y0026771D01*
X0034016Y0026053D01*
X0034016Y0033526D02*
X0031147Y0033526D01*
D12*
X0028761Y0034000D02*
X0028761Y0030614D01*
X0019509Y0030614D01*
X0019509Y0057386D01*
X0028761Y0057386D01*
X0028761Y0054000D01*
X0027580Y0054000D01*
X0027580Y0034000D01*
X0028761Y0034000D01*
X0040389Y0041465D02*
X0040389Y0042633D01*
X0040972Y0043216D01*
X0040972Y0044564D02*
X0040389Y0045148D01*
X0040389Y0046316D01*
X0040972Y0046900D01*
X0043308Y0046900D01*
X0043892Y0046316D01*
X0043892Y0045148D01*
X0043308Y0044564D01*
X0043308Y0043216D02*
X0043892Y0042633D01*
X0043892Y0041465D01*
X0043308Y0040881D01*
X0042724Y0040881D01*
X0042140Y0041465D01*
X0041556Y0040881D01*
X0040972Y0040881D01*
X0040389Y0041465D01*
X0042140Y0041465D02*
X0042140Y0042049D01*
X0033879Y0044000D02*
X0025611Y0044000D01*
X0024627Y0044000D02*
X0023643Y0044000D01*
X0022658Y0044000D02*
X0018721Y0044000D01*
X0047160Y0064031D02*
X0047160Y0066366D01*
X0049496Y0064031D01*
X0050079Y0064031D01*
X0050663Y0064615D01*
X0050663Y0065782D01*
X0050079Y0066366D01*
X0050079Y0067714D02*
X0050663Y0068298D01*
X0050663Y0069465D01*
X0050079Y0070049D01*
X0047744Y0070049D01*
X0047160Y0069465D01*
X0047160Y0068298D01*
X0047744Y0067714D01*
X0087160Y0068298D02*
X0087744Y0067714D01*
X0087160Y0068298D02*
X0087160Y0069465D01*
X0087744Y0070049D01*
X0090079Y0070049D01*
X0090663Y0069465D01*
X0090663Y0068298D01*
X0090079Y0067714D01*
X0089496Y0066366D02*
X0090663Y0065198D01*
X0087160Y0065198D01*
X0087160Y0064031D02*
X0087160Y0066366D01*
X0090972Y0040650D02*
X0090389Y0040066D01*
X0090389Y0038898D01*
X0090972Y0038314D01*
X0092140Y0036966D02*
X0092140Y0034631D01*
X0090389Y0035215D02*
X0093892Y0035215D01*
X0092140Y0036966D01*
X0093308Y0038314D02*
X0093892Y0038898D01*
X0093892Y0040066D01*
X0093308Y0040650D01*
X0090972Y0040650D01*
D13*
X0105080Y0041500D02*
X0105080Y0036500D01*
X0107580Y0034000D01*
X0105080Y0031500D01*
X0105080Y0026500D01*
X0107580Y0024000D01*
X0112580Y0024000D01*
X0115080Y0026500D01*
X0115080Y0031500D01*
X0112580Y0034000D01*
X0107580Y0034000D01*
X0112580Y0034000D02*
X0115080Y0036500D01*
X0115080Y0041500D01*
X0112580Y0044000D01*
X0107580Y0044000D01*
X0105080Y0046500D01*
X0105080Y0051500D01*
X0107580Y0054000D01*
X0105080Y0056500D01*
X0105080Y0061500D01*
X0107580Y0064000D01*
X0112580Y0064000D01*
X0115080Y0061500D01*
X0115080Y0056500D01*
X0112580Y0054000D01*
X0115080Y0051500D01*
X0115080Y0046500D01*
X0112580Y0044000D01*
X0107580Y0044000D02*
X0105080Y0041500D01*
X0107580Y0054000D02*
X0112580Y0054000D01*
D14*
X0072080Y0054000D02*
X0072080Y0053000D01*
X0072080Y0054000D02*
X0058080Y0054000D01*
X0058080Y0053000D01*
X0058080Y0035000D02*
X0058080Y0034000D01*
X0072080Y0034000D01*
X0072080Y0035000D01*
M02*
