G75*
%MOIN*%
%OFA0B0*%
%FSLAX25Y25*%
%IPPOS*%
%LPD*%
%AMOC8*
5,1,8,0,0,1.08239X$1,22.5*
%
%ADD10R,0.08474X0.06506*%
%ADD11R,0.04852X0.04734*%
%ADD12OC8,0.08200*%
%ADD13R,0.04931X0.04537*%
%ADD14R,0.06112X0.03356*%
%ADD15R,0.09261X0.02962*%
%ADD16R,0.04537X0.06112*%
%ADD17C,0.04000*%
%ADD18R,0.04000X0.04000*%
%ADD19C,0.17198*%
D10*
X0056330Y0060594D03*
X0056330Y0072406D03*
X0081330Y0072406D03*
X0081330Y0060594D03*
D11*
X0092580Y0052445D03*
X0092580Y0045555D03*
X0037580Y0047445D03*
X0037580Y0040555D03*
D12*
X0110080Y0039000D03*
X0110080Y0049000D03*
X0110080Y0059000D03*
X0110080Y0029000D03*
D13*
X0085080Y0045654D03*
X0085080Y0052346D03*
X0080080Y0026096D03*
X0080080Y0019404D03*
X0070080Y0019404D03*
X0070080Y0026096D03*
X0060080Y0026096D03*
X0060080Y0019404D03*
X0050080Y0019404D03*
X0050080Y0026096D03*
D14*
X0027580Y0036500D03*
X0027580Y0041500D03*
X0027580Y0046500D03*
X0027580Y0051500D03*
D15*
X0054843Y0051500D03*
X0054843Y0046500D03*
X0054843Y0041500D03*
X0054843Y0036500D03*
X0075316Y0036500D03*
X0075316Y0041500D03*
X0075316Y0046500D03*
X0075316Y0051500D03*
D16*
X0068830Y0062169D03*
X0072570Y0070831D03*
X0065089Y0070831D03*
D17*
X0047580Y0054000D03*
X0037580Y0054000D03*
X0087580Y0019000D03*
D18*
X0088830Y0029000D03*
X0062580Y0051500D03*
X0037580Y0035250D03*
X0092580Y0057750D03*
X0083830Y0077750D03*
X0078830Y0077750D03*
X0072580Y0077750D03*
X0058830Y0077750D03*
X0053830Y0077750D03*
D19*
X0030080Y0014000D03*
X0105080Y0014000D03*
X0105080Y0074000D03*
X0030080Y0074000D03*
M02*
